<svg xmlns="http://www.w3.org/2000/svg" viewBox="0 0 95.57 94.22"><defs><style>.cls-1{fill:#ffd072;}.cls-2{fill:#fff;}</style></defs><title>bee</title><g id="Calque_2" data-name="Calque 2"><g id="Calque_1-2" data-name="Calque 1"><path d="M91.8,51,70.34,27.62l-.07.05a22.56,22.56,0,0,0-4.87-11.5l7.14-9.59a4.12,4.12,0,1,0-6.6-4.92l-6.8,9.14a22.58,22.58,0,0,0-22.72,0L29.64,1.66A4.12,4.12,0,1,0,23,6.58l7.11,9.55a22.73,22.73,0,0,0-4.91,11.52l0,0L3.76,51a14.32,14.32,0,0,0,.88,20.23A14.38,14.38,0,0,0,14.31,75h.63a14.22,14.22,0,0,0,9.93-4.63l1.47-1.6A22.71,22.71,0,0,0,43.68,83.56v6.55a4.14,4.14,0,0,0,8.27,0V83.53A22.67,22.67,0,0,0,69.17,68.71l1.52,1.66A14.27,14.27,0,0,0,80.62,75h.63a14.29,14.29,0,0,0,14.3-13.68A14.19,14.19,0,0,0,91.8,51ZM25.07,61,20.3,66.19a8.12,8.12,0,0,1-5.63,2.64h-.36a8.13,8.13,0,0,1-6-13.61l16.76-18.3Zm37.08.28H33.34V50.9H62.15Zm0-20.53H33.34V30.38H62.15Zm24.59,26a8.11,8.11,0,0,1-5.49,2.13h-.36a8.13,8.13,0,0,1-5.65-2.63L70.42,61V36.86L87.24,55.21a8.13,8.13,0,0,1-.5,11.49Z"/><rect class="cls-1" x="33.34" y="30.38" width="28.81" height="10.34"/><rect class="cls-1" x="33.34" y="50.9" width="28.81" height="10.35"/><path class="cls-2" d="M89.37,61.06a8,8,0,0,1-2.63,5.64,8.11,8.11,0,0,1-5.49,2.13h-.36a8.13,8.13,0,0,1-5.65-2.63L70.42,61V36.86L87.24,55.21A8.09,8.09,0,0,1,89.37,61.06Z"/><path class="cls-2" d="M25.07,36.92V61L20.3,66.19a8.12,8.12,0,0,1-5.63,2.64h-.36a8.13,8.13,0,0,1-6-13.61Z"/></g></g></svg>