<svg xmlns="http://www.w3.org/2000/svg" viewBox="0 0 683.66 554.66"><defs><style>.cls-1{fill:#264b5c;}.cls-2{fill:#e5b5af;}.cls-3{fill:#a8d0d4;}.cls-4{fill:#5b899a;}.cls-5{fill:#82bdc0;}.cls-6{opacity:0.5;}.cls-7{fill:#efd4cf;}.cls-8{fill:#db978f;}.cls-9{fill:#f6e7e6;}</style></defs><title>deco01</title><g id="Calque_2" data-name="Calque 2"><g id="Calque_1-2" data-name="Calque 1"><path class="cls-1" d="M267.14,255.74C256.34,197.21,278,142,305.28,91.24c7.62-14.16,15.62-28.12,23.51-42.13,1.59-2.83-2.77-5.38-4.36-2.55-28.16,50-59.39,101.58-64.64,160.05a186.08,186.08,0,0,0,2.48,50.47c.59,3.19,5.46,1.84,4.87-1.34Z"/><path class="cls-1" d="M283.81,63.31c4.29,13,7.9,26.48,15.05,38.28a2.56,2.56,0,0,0,3.45.91c12.24-8.16,24.54-16.23,37.68-22.88,2.9-1.47.35-5.82-2.55-4.36C324.3,81.92,312,90,299.77,98.14l3.45.9C296.29,87.62,292.83,74.56,288.67,62c-1-3.07-5.89-1.75-4.86,1.34Z"/><path class="cls-1" d="M259.49,111.08c1.61,16.19,6.59,32.58,16.5,45.68a2.58,2.58,0,0,0,3.45.91c14.08-8.31,29.71-13.8,42.22-24.62,2.46-2.13-1.12-5.68-3.56-3.57C306,140,290.56,145.25,276.89,153.31l3.45.91c-9.35-12.38-14.28-27.81-15.8-43.14-.32-3.2-5.37-3.23-5.05,0Z"/><path class="cls-2" d="M263.77,102.6l-1.35-1.35a10.09,10.09,0,0,0-14.27,14.28l1.35,1.34a10.09,10.09,0,0,0,14.27-14.27Z"/><path class="cls-2" d="M322.57,123.87A10.18,10.18,0,0,0,312.48,134v1.34a10.09,10.09,0,1,0,20.18,0V134A10.18,10.18,0,0,0,322.57,123.87Z"/><path class="cls-2" d="M279.51,56.58c-13,0-13,20.19,0,20.19S292.53,56.58,279.51,56.58Z"/><path class="cls-2" d="M338.72,70c-13,0-13,20.18,0,20.18S351.73,70,338.72,70Z"/><path class="cls-2" d="M323.92,36.4c-13,0-13,20.18,0,20.18S336.93,36.4,323.92,36.4Z"/><path class="cls-3" d="M408,104.88c-14.45-6.19-41.29-22.71-27.87-43.35,17.54-25.8,29.93,27.87,28.9,41.28"/><path class="cls-3" d="M433.81,141c2.06-18.57,32-57.79,49.54-35.09,21.68,28.9-32,44.38-51.6,39.22"/><path class="cls-4" d="M434.84,68.76c-7.22-16.52-19.61-52.64,0-66.06,25.8-17.55,36.13,55.73,3.1,67.09"/><path class="cls-5" d="M389.43,173c-5.16-1-12.39-3.1-17.55-6.19-9.29-6.2-23.74-36.13-6.19-42.32,20.64-6.19,27.87,36.12,25.8,49.54"/><path class="cls-1" d="M363.87,311.42c31-16.5,39.25-55.72,40.35-88,.72-21.42.95-42.8,4.41-64a229.91,229.91,0,0,1,20.31-63.1c11-22.65,21.7-46.41,12.46-71.61-1.11-3-6-1.72-4.86,1.34,8.43,23-.78,44.63-10.83,65.39-9.14,18.89-16.48,38.38-20.57,59-3.93,19.91-5.14,40.22-5.71,60.46-.49,17.17-1.1,34-5.74,50.71-5.14,18.51-14.9,36.13-32.37,45.41-2.87,1.53-.32,5.89,2.55,4.36Z"/><path class="cls-1" d="M394.22,78.71c4.4,13.17,9.13,29.11,20.26,38.28,2.49,2,6.08-1.51,3.57-3.57-10.47-8.62-14.82-23.66-19-36-1-3.06-5.9-1.75-4.87,1.34Z"/><path class="cls-1" d="M470.21,114.45c-16,19.62-38.62,29.3-62.87,34.44-3.18.68-1.84,5.54,1.34,4.87,25-5.31,48.61-15.51,65.1-35.74,2-2.5-1.51-6.09-3.57-3.57Z"/><path class="cls-1" d="M370.48,145.8c3.51,16.7,16.77,29,29.55,39.3,2.51,2,6.1-1.53,3.57-3.56-12.11-9.73-24.92-21.22-28.25-37.08-.67-3.17-5.54-1.83-4.87,1.34Z"/><path class="cls-4" d="M161.43,529.36c-43.64-43.76-81.49-87.28-81.75-155.07-.81-86.1,56.47-175.54,123.87-229.77,5.09-4.25,11.12-9.79,16.2-14,46.09,59.47,95.32,161,86.71,238.22-6.59,60.82-62.55,129.35-116.8,157.39-2.25.35-3.19,1.64-5.44,2"/><g class="cls-6"><path class="cls-3" d="M197.23,377.28c5.22-39.4,6.26-79,9.21-118.58,3.13-41.94,7.12-83.82,10.42-125.75-4.38,3.78-9.15,8.11-13.31,11.57C136.15,198.75,78.87,288.19,79.68,374.29c.26,67.79,38.11,111.31,81.75,155.07l15.19-.84C180.48,477.89,190.56,427.71,197.23,377.28Z"/></g><path class="cls-1" d="M178.8,183.24c13.48,12.16,21.28,28.87,30.72,44.06a2.56,2.56,0,0,0,4,.51c11.77-13.71,18.57-30.63,29-45.23,1.89-2.65-2.48-5.17-4.36-2.55-10.2,14.24-16.78,30.86-28.25,44.21l4,.51c-9.67-15.55-17.7-32.63-31.51-45.08-2.4-2.17-6,1.39-3.57,3.57Z"/><path class="cls-1" d="M157.86,237.58l49.32,36a2.51,2.51,0,0,0,3-.39c12.26-13.73,27.46-24.47,43.71-33,2.88-1.51.33-5.86-2.54-4.36-16.6,8.68-32.22,19.75-44.74,33.76l3.06-.4-49.31-36c-2.63-1.92-5.15,2.46-2.55,4.36Z"/><path class="cls-1" d="M142.33,277.94C164,293.85,184.76,313.52,200,335.71a2.56,2.56,0,0,0,4.35,0c13.19-18.09,27-38.13,46.3-50.17,2.75-1.72.22-6.08-2.55-4.36-20.11,12.54-34.37,33.15-48.1,52h4.35c-15.8-23-37.13-43.12-59.51-59.57-2.62-1.93-5.14,2.45-2.55,4.35Z"/><path class="cls-1" d="M216.63,134c-2.39,33-6.54,65.78-8.31,98.79-1.24,23.11-.85,46.07-3.25,69.12-5.18,49.71-13.83,99-21.09,148.46-3.81,26-7.5,52-9.88,78.12-.3,3.23,4.75,3.21,5,0,4.53-49.55,13.06-98.72,20.43-147.9,3.54-23.59,7-47.21,9.7-70.91,1.09-9.63,2.06-19.29,2.68-29,.75-11.85.47-23.7.87-35.56C214.08,208,219,171.1,221.68,134c.24-3.24-4.81-3.22-5.05,0Z"/><path class="cls-1" d="M137.19,335.78c19.32,23.7,32.21,52.1,53.83,74a2.55,2.55,0,0,0,3.57,0c22-24.55,49-44.09,69-70.49,2-2.58-2.42-5.1-4.36-2.54-19.73,26-46.54,45.25-68.23,69.46h3.57c-21.6-21.88-34.52-50.32-53.83-74-2-2.52-5.6,1.07-3.57,3.57Z"/><path class="cls-1" d="M104.5,397.17c10,14.56,24.85,23.91,36.31,37,9.34,10.72,18.48,22.39,30.17,30.69,3.92,2.79,8.58,5.36,13.55,4.75,5.45-.66,10.73-4,15.28-6.88,11.81-7.38,22.94-16.15,34.14-24.43,20.49-15.16,39.69-32,58.87-48.74,2.44-2.14-1.14-5.7-3.57-3.57-27,23.64-54.61,46.29-83.94,67-5.23,3.69-10.65,7.5-16.54,10.08-4.8,2.11-8.22,1.83-12.73-.89-11.5-6.93-20.44-18.62-29.12-28.63a142.51,142.51,0,0,0-15.29-15.4c-8.36-7.15-16.52-14.43-22.77-23.56-1.82-2.67-6.2-.14-4.36,2.55Z"/><path class="cls-2" d="M300.55,379c17.49-32.3,12.11-57.87-10.77-86.13-12.11-13.45-47.1-41.71-35-64.59,14.81-25.56,48.45,8.08,59.21,21.53-2.69-12.11-6.73-40.36,4-49.78,17.49-16.15,29.6,17.49,40.37,29.6,14.8-21.53,39-52.48,55.17-14.8,9.42,22.87,5.38,56.52,0,79.39-4,21.53-9.42,45.75-16.15,65.94-6.73,21.53-24.22,37.67-32.29,57.86"/><path class="cls-7" d="M370,402.79c25.56-41.71,26.91-76.7,37.68-123.8,5.38-26.91,9.41-70,39-79.39,35-12.11,30.95,32.29,36.33,53.83,9.42-10.77,36.33-43.06,55.17-35,17.5,9.42,4,45.75,2.69,60.55,18.84-5.38,52.48-16.14,57.86,13.46,4,24.22-25.56,61.9-41.71,76.7-30.95,32.29-82.08,61.9-125.14,75.36"/><path class="cls-2" d="M418.88,458.88c30.95-41.72,57.86-86.13,103.62-113,21.53-13.45,52.48-32.29,78-30.95,39,1.35,16.15,33.64,10.77,55.17,13.46,1.35,51.13-22.87,63.24-4s-44.4,48.44-51.13,64.59c17.49,0,75.36-20.19,56.52,21.53-12.11,31-53.83,36.33-80.74,39-48.44,4-96.89,9.42-145.33,13.46"/><path class="cls-8" d="M296.91,269c31.29,33,49.92,79.77,42.42,125.38-.53,3.17,4.34,4.54,4.86,1.34,7.81-47.48-11.07-95.9-43.71-130.29-2.24-2.36-5.8,1.21-3.57,3.57Z"/><path class="cls-8" d="M359.51,253.06C367.79,295,370.86,344,350.35,383c-1.51,2.87,2.84,5.43,4.35,2.55,21.2-40.28,18.24-90.51,9.68-133.82-.63-3.18-5.5-1.83-4.87,1.34Z"/><path class="cls-8" d="M449.58,256.43c-.11,25.73-5.25,51.39-13.78,75.62s-20.62,47.59-38,66.58c-2.19,2.39,1.37,6,3.57,3.57,17.59-19.27,30-42.88,38.73-67.32,9-25.07,14.38-51.77,14.48-78.45,0-3.25-5-3.25-5,0Z"/><path class="cls-8" d="M509.13,276.69c-8.87,12.93-17.33,26.13-25.55,39.48-8.06,13.08-15.32,26.8-24.2,39.34-16.05,22.63-36.68,41.82-49.83,66.5-1.52,2.87,2.83,5.42,4.36,2.55,13.13-24.67,33.78-43.88,49.82-66.5,8.71-12.28,15.83-25.71,23.71-38.53,8.38-13.62,17-27.1,26.05-40.3,1.84-2.68-2.53-5.21-4.36-2.54Z"/><path class="cls-8" d="M578.15,348.84c-36.42,41.79-85.21,77.78-138.83,93.55-3.11.91-1.79,5.78,1.34,4.86,54.42-16,104.08-52.41,141.06-94.84,2.13-2.44-1.43-6-3.57-3.57Z"/><path class="cls-8" d="M613.65,391.51c-48,22-93.45,49.33-138.6,76.7-2.77,1.68-.24,6,2.55,4.35,45.15-27.36,90.55-54.65,138.6-76.7,2.95-1.35.38-5.7-2.55-4.35Z"/><path class="cls-8" d="M610.22,454.5c-43.05,16-88.45,24.2-131.88,39-3,1-1.74,5.92,1.34,4.86,43.43-14.82,88.83-23,131.88-39,3-1.12,1.71-6-1.34-4.86Z"/><path class="cls-1" d="M213.92,490.57c21.53-20.19,32.3-52.48,43.06-79.4,8.08-21.53,28.26-76.7,55.17-82.08,20.19-2.69,20.19,17.49,25.57,31,12.11,24.22,12.11,14.8,28.26,0,10.76-8.07,26.91-21.53,41.72-12.11,14.8,12.11,2.69,49.79,1.34,51.13,24.22,4,67.28-39,63.25,10.77-1.35,17.49-13.46,26.91,12.11,22.87,13.45-2.69,26.91-21.53,35,0,4,12.11-14.8,25.57-9.42,36.34,6.73,10.76,21.53-5.39,32.3,2.69,28.26,17.49-17.49,56.51-33.64,61.9C418.46,571.3,292,557.85,215.27,497.29c-1.35,0-1.35-1.34-2.69-2.69"/><path class="cls-4" d="M213.53,509.11c15.31-14.35,23-37.3,30.61-56.43,5.74-15.3,20.08-54.52,39.21-58.34,14.35-1.92,14.35,12.43,18.17,22,8.61,17.22,8.61,10.53,20.09,0,7.65-5.73,19.12-15.3,29.65-8.6,10.52,8.6,1.91,35.38.95,36.34,17.22,2.87,47.82-27.74,45,7.65-1,12.44-9.56,19.13,8.61,16.26,9.56-1.91,19.13-15.3,24.87,0,2.86,8.61-10.52,18.17-6.7,25.82,4.78,7.66,15.3-3.82,22.95,1.92,20.09,12.43-12.43,40.17-23.91,44-64.07,26.78-154,17.21-208.49-25.82-1,0-1-1-1.91-1.92"/><path class="cls-7" d="M212.84,489.2c-62.4-4.35-135,49.34-195.91,13.06C-.48,492.1-6.29,477.59,8.22,460.17c14.52-18.86,42.09-17.41,63.86-17.41,39.18,0,76.91,5.8,113.19,18.87,13.06,4.35,24.67,10.15,36.28,14.51"/><path class="cls-7" d="M205.45,479.17c-45.39-43-135.53-47.74-159.5-114.5-7-18.91-2.24-33.81,20-38,23.19-5.33,43.55,13.32,60.35,27.16,30.24,24.92,55.67,53.39,75.37,86.54,7.31,11.67,12.58,23.53,18.77,34.27"/><path class="cls-7" d="M238,489.2c62.4-4.35,135,49.34,195.91,13.06,17.41-10.16,23.22-24.67,8.71-42.09-14.52-18.86-42.09-17.41-63.86-17.41-39.18,0-76.91,5.8-113.19,18.87-13.06,4.35-24.67,10.15-36.28,14.51"/><path class="cls-7" d="M250.46,481.55c45.4-43,135.54-47.75,159.51-114.5,7-18.92,2.23-33.81-20-38-23.2-5.33-43.55,13.32-60.35,27.16-30.24,24.92-55.67,53.39-75.37,86.54-7.31,11.67-12.58,23.53-18.77,34.27"/><path class="cls-7" d="M199.45,460.35C194,398,129.71,334.71,156.06,268.85c7.33-18.78,20.76-26.77,40.22-15.15,20.89,11.4,23.75,38.87,27.14,60.37,6.09,38.7,6.23,76.88-1,114.75-2.27,13.58-6.2,25.95-8.69,38.1"/><path class="cls-7" d="M210.72,466.34c29.09-55.38,9.11-143.41,66.84-184.62,16.31-11.85,31.93-11.33,42,9,11.44,20.88-1,45.54-9.74,65.46-15.76,35.88-36.25,68.09-62.8,96.05-9.24,10.21-19.22,18.5-27.88,27.38"/><path class="cls-8" d="M78.76,370.54C122.51,407.38,179.83,425.43,216,471.46c2,2.55,5.56-1,3.57-3.56-17.77-22.61-40.9-39.36-65.32-54.11S104.33,385.5,82.33,367c-2.47-2.08-6.06,1.48-3.57,3.57Z"/><path class="cls-8" d="M184.41,296.76c13.75,58.78,2.48,122.63,29.86,178.23,1.44,2.91,5.79.36,4.36-2.55-27.09-55-15.74-118.8-29.35-177-.74-3.16-5.61-1.82-4.87,1.34Z"/><path class="cls-8" d="M278.61,311.57c-15.8,51.87-17.31,110.62-51.83,155-2,2.53,1.57,6.13,3.57,3.57,35.23-45.28,37-104.27,53.12-157.21.95-3.11-3.92-4.44-4.86-1.34Z"/><path class="cls-8" d="M377.49,364.28c-23.95,18.52-42.36,43.41-67.32,60.66-25.67,17.74-52.1,34.42-76.66,53.72-2.56,2,1,5.56,3.56,3.57,25.21-19.81,52.51-36.64,78.71-55.06,24.1-16.95,42-41.31,65.28-59.32,2.56-2-1-5.53-3.57-3.57Z"/><path class="cls-8" d="M29.41,472.2c28.12,2.77,56.28-2.68,84.41-2.69,31.56,0,63.11,1.44,94.56,4,3.23.27,3.22-4.78,0-5.05-31.45-2.59-63-4-94.56-4-28.13,0-56.29,5.45-84.41,2.69-3.23-.32-3.21,4.73,0,5Z"/><path class="cls-8" d="M416.39,466.48c-31.29-5.1-63-1.36-94.38,1s-64,3.86-93.94-7.54c-3-1.15-4.35,3.72-1.34,4.87,60.53,23.05,126.14-3.58,188.32,6.55,3.18.52,4.54-4.35,1.34-4.87Z"/><path class="cls-2" d="M230.26,438.41c-43.54-5.81-84.17,46.44-33.38,72.56,52.25,27.57,110.29-49.35,33.38-72.56"/><path class="cls-9" d="M226,455.32c-24.65-3.28-47.66,26.3-18.9,41.09,29.58,15.62,62.46-27.94,18.9-41.09"/></g></g></svg>