<svg xmlns="http://www.w3.org/2000/svg" viewBox="0 0 2000.55 782.76"><defs><style>.cls-1{fill:#264b5c;}.cls-2{fill:#e5b5af;}.cls-3{fill:#326775;}.cls-4{fill:#5b899a;}.cls-5{fill:#a8d0d4;}.cls-6{fill:#82bdc0;}.cls-7{opacity:0.5;}.cls-8{fill:#efd4cf;}.cls-9{fill:#db978f;}.cls-10{fill:#8cc2c4;}.cls-11{fill:#f6e7e6;}</style></defs><title>fond_1</title><g id="Calque_2" data-name="Calque 2"><g id="Calque_1-2" data-name="Calque 1"><path class="cls-1" d="M719.44,483.85c-10.8-58.53,10.85-113.74,38.14-164.5,7.62-14.17,15.62-28.12,23.5-42.14,1.6-2.83-2.76-5.38-4.35-2.54-28.16,50-59.39,101.58-64.64,160.05a186.08,186.08,0,0,0,2.48,50.47c.59,3.19,5.46,1.84,4.87-1.34Z"/><path class="cls-1" d="M736.1,291.42c4.3,13,7.91,26.48,15.06,38.27a2.54,2.54,0,0,0,3.45.91c12.24-8.16,24.54-16.22,37.68-22.88,2.9-1.46.35-5.82-2.55-4.35-13.14,6.65-25.43,14.71-37.68,22.87l3.46.91c-6.93-11.43-10.39-24.49-14.55-37.08-1-3.06-5.89-1.75-4.87,1.35Z"/><path class="cls-1" d="M711.79,339.19c1.61,16.19,6.59,32.58,16.49,45.68a2.6,2.6,0,0,0,3.46.9c14.08-8.3,29.71-13.79,42.22-24.61,2.46-2.13-1.12-5.69-3.57-3.57-12.13,10.49-27.53,15.76-41.2,23.82l3.45.91c-9.35-12.38-14.28-27.8-15.8-43.13-.32-3.2-5.37-3.24-5.05,0Z"/><path class="cls-2" d="M716.07,330.71l-1.35-1.35a10.09,10.09,0,0,0-14.27,14.27L701.8,345a10.09,10.09,0,0,0,14.27-14.27Z"/><path class="cls-2" d="M774.87,352a10.18,10.18,0,0,0-10.09,10.09v1.35a10.09,10.09,0,0,0,20.18,0v-1.35A10.18,10.18,0,0,0,774.87,352Z"/><path class="cls-2" d="M731.81,284.69c-13,0-13,20.18,0,20.18S744.82,284.69,731.81,284.69Z"/><path class="cls-2" d="M791,298.14c-13,0-13,20.19,0,20.19S804,298.14,791,298.14Z"/><path class="cls-2" d="M776.22,264.5c-13,0-13,20.19,0,20.19S789.23,264.5,776.22,264.5Z"/><path class="cls-1" d="M1919.57,307.48c2.33-21.12,8.83-42.05,6.78-63.48-1.82-19.09-9.76-37-19.18-53.49s-20.8-32.07-28.67-49.48a232.37,232.37,0,0,1-17.19-58.95,285.53,285.53,0,0,1-2.3-69.3c.28-3.23-4.77-3.21-5,0-3.4,39.81.8,81,15.06,118.49,13.72,36.06,42.51,65.11,50.78,103.38,5.29,24.47-2.61,48.58-5.29,72.83-.36,3.22,4.69,3.2,5,0Z"/><path class="cls-1" d="M1814.34,37.44c12.33,12.34,24.82,24.53,39.53,34a2.56,2.56,0,0,0,3.45-.9A359,359,0,0,1,1900,13.22c2.19-2.39-1.37-6-3.57-3.57A365.2,365.2,0,0,0,1853,68l3.45-.91c-14.35-9.28-26.48-21.22-38.52-33.24-2.29-2.3-5.86,1.26-3.56,3.56Z"/><path class="cls-1" d="M1827,101.08c14.73,10.75,29.16,21.81,45.75,29.61a2.58,2.58,0,0,0,3.71-1.51C1882,114,1888.22,99,1892.56,83.43c.88-3.14-4-4.47-4.86-1.34-4.34,15.6-10.6,30.56-16.15,45.75l3.71-1.51c-16.6-7.8-31-18.86-45.76-29.6-2.62-1.92-5.14,2.46-2.54,4.35Z"/><path class="cls-1" d="M1842.36,156.51c18.4,7.11,37.22,15.15,52.71,27.61a2.57,2.57,0,0,0,4.22-1.11c5.25-14.57,9.39-29.48,13.46-44.41.85-3.14-4-4.48-4.87-1.34-4.07,14.93-8.21,29.83-13.45,44.4l4.21-1.11c-16.22-13-35.65-21.46-54.94-28.91-3-1.17-4.34,3.71-1.34,4.87Z"/><path class="cls-2" d="M1855.14,0c-13,0-13,20.18,0,20.18S1868.16,0,1855.14,0Z"/><path class="cls-2" d="M1899.55,0a10.18,10.18,0,0,0-10.09,10.09v1.35a10.09,10.09,0,0,0,20.18,0V10.09A10.18,10.18,0,0,0,1899.55,0Z"/><path class="cls-2" d="M1817.47,21.53c-13,0-13,20.19,0,20.19S1830.48,21.53,1817.47,21.53Z"/><path class="cls-2" d="M1888.78,72.66c-13,0-13,20.19,0,20.19S1901.8,72.66,1888.78,72.66Z"/><path class="cls-2" d="M1828.23,86.12c-13,0-13,20.19,0,20.19S1841.25,86.12,1828.23,86.12Z"/><path class="cls-2" d="M1843,144c-13,0-13,20.19,0,20.19S1856.05,144,1843,144Z"/><path class="cls-2" d="M1909,126.49h-1.35a10.1,10.1,0,0,0,0,20.19H1909a10.1,10.1,0,0,0,0-20.19Z"/><path class="cls-3" d="M32.47,738.51C-11.93,694.11,1.65,534.33,3,477.81c1.35-37.68,8.08-74,13.46-111.69,2.69-13.45,20.19-117.07,31-117.07h1.35C77,385,62.2,531.64,44.71,667.55"/><path class="cls-4" d="M54.71,654.67c0-61.9-1.35-129.19,12.11-189.74,13.46-68.63,45.75-156.09,84.77-214,6.73,141.3-61.89,273.17-96.88,405"/><path class="cls-5" d="M860.31,322c-14.46-6.2-41.29-22.71-27.87-43.35,17.54-25.81,29.93,27.86,28.9,41.28"/><path class="cls-5" d="M886.11,358.11c2.06-18.58,32-57.8,49.54-35.09,21.67,28.9-32,44.38-51.61,39.22"/><path class="cls-4" d="M887.14,285.86c-7.22-16.51-19.61-52.64,0-66.06,25.8-17.54,36.13,55.74,3.09,67.09"/><path class="cls-6" d="M841.73,390.11c-5.16-1-12.39-3.1-17.55-6.2-9.29-6.19-23.74-36.12-6.19-42.32,20.64-6.19,27.86,36.13,25.8,49.55"/><path class="cls-1" d="M816.17,528.52c31-16.49,39.25-55.72,40.34-87.95.73-21.42,1-42.8,4.42-64a229.91,229.91,0,0,1,20.31-63.1c11-22.65,21.7-46.4,12.46-71.61-1.11-3-6-1.72-4.87,1.34,8.44,23-.78,44.63-10.82,65.4-9.14,18.89-16.48,38.37-20.57,59-3.94,19.9-5.14,40.21-5.71,60.45-.49,17.17-1.1,34-5.74,50.72-5.14,18.51-14.9,36.12-32.37,45.41-2.87,1.52-.32,5.88,2.55,4.35Z"/><path class="cls-1" d="M846.52,295.82c4.4,13.16,9.13,29.11,20.26,38.27,2.48,2.05,6.07-1.5,3.56-3.57-10.47-8.62-14.81-23.66-19-36-1-3.07-5.9-1.75-4.86,1.34Z"/><path class="cls-1" d="M922.51,331.55c-16,19.63-38.62,29.3-62.88,34.45-3.17.67-1.83,5.54,1.35,4.86,25-5.3,48.61-15.51,65.1-35.74,2-2.5-1.51-6.09-3.57-3.57Z"/><path class="cls-1" d="M822.78,362.91c3.51,16.7,16.77,29,29.55,39.3,2.51,2,6.1-1.53,3.57-3.57-12.11-9.72-24.92-21.22-28.26-37.07-.66-3.18-5.53-1.83-4.86,1.34Z"/><path class="cls-5" d="M110.33,245.84c-15.67,1.25-47.11-.86-44.86-25.37,3.5-31,39.47,10.71,44.81,23.06"/><path class="cls-5" d="M150,265.78c-6.83-17.4,1.38-66,27.49-54.13,32.64,15.47-7.64,54.18-27.39,58.75"/><path class="cls-4" d="M117.24,201.37c-14.09-11.24-41.88-37.44-30.78-58.44,14.66-27.55,57.94,32.48,34,57.91"/><path class="cls-6" d="M125.63,314.77c-5,1.49-12.4,3-18.41,2.7-11.11-1.16-37.84-20.91-25.2-34.56,15.38-15.1,41.49,19,45.92,31.81"/><path class="cls-1" d="M167.54,449.1c22.79-33.62,4.88-75.58-11-107.87-9.65-19.64-18.65-39.7-24.32-60.9-5.57-20.85-6.73-41.74-7.81-63.17s-5.22-42.79-22-57.85c-2.41-2.17-6,1.39-3.57,3.57,15.34,13.8,19.32,33,20.41,52.8s1.76,39.06,6.18,58.4,11.68,37.73,20,55.65,18,34.93,23.36,54c5.83,20.9,7,44.13-5.67,62.81-1.82,2.7,2.55,5.22,4.36,2.55Z"/><path class="cls-1" d="M86,229.17c10,9.61,21.66,21.44,35.78,24.39,3.17.66,4.52-4.2,1.34-4.87-13.28-2.77-24.1-14.05-33.55-23.09-2.34-2.25-5.92,1.32-3.57,3.57Z"/><path class="cls-1" d="M169.81,225.4c-5,24.81-20.57,43.9-39.63,59.75-2.49,2.08,1.09,5.63,3.57,3.57,19.67-16.36,35.75-36.39,40.92-62,.64-3.17-4.22-4.53-4.86-1.34Z"/><path class="cls-1" d="M96.25,299.59c10.86,13.13,28.42,17.86,44.48,21,3.17.62,4.53-4.24,1.34-4.86-15.25-3-31.93-7.18-42.26-19.67-2.07-2.51-5.62,1.08-3.56,3.56Z"/><path class="cls-5" d="M1816.46,534.91c-76.71-107.65,22.87-310.84,103.61-387.55,17.49,35,31,83.44,33.64,122.46s9.42,79.39,6.73,118.42c-4,55.17-31,134.56-86.12,157.43"/><path class="cls-6" d="M1953.71,269.82c-2.69-39-16.15-87.47-33.64-122.46-1.2,1.14-2.41,2.32-3.61,3.51-5.08,132.76-51,259-71.9,389.27l29.76,5.53c55.17-22.87,82.08-102.26,86.12-157.43C1963.13,349.21,1956.4,308.84,1953.71,269.82Z"/><path class="cls-4" d="M954.73,757.47c-43.64-43.76-81.49-87.28-81.75-155.08-.82-86.09,56.47-175.54,123.87-229.77,5.09-4.24,11.12-9.78,16.2-14,46.09,59.47,95.32,161,86.7,238.23-6.58,60.81-62.54,129.35-116.79,157.38-2.25.35-3.19,1.65-5.44,2"/><g class="cls-7"><path class="cls-5" d="M990.53,605.38c5.22-39.4,6.26-79,9.21-118.58,3.13-41.94,7.12-83.81,10.42-125.75-4.38,3.79-9.16,8.11-13.31,11.57C929.45,426.85,872.16,516.3,873,602.39c.26,67.8,38.11,111.32,81.75,155.08l15.19-.85C973.78,706,983.85,655.81,990.53,605.38Z"/></g><path class="cls-1" d="M972.1,411.34c13.48,12.16,21.28,28.87,30.72,44.06a2.55,2.55,0,0,0,4,.51c11.77-13.7,18.57-30.63,29-45.23,1.9-2.64-2.48-5.17-4.35-2.55-10.21,14.24-16.78,30.86-28.25,44.21l4,.51c-9.67-15.54-17.71-32.62-31.51-45.07-2.41-2.18-6,1.38-3.57,3.56Z"/><path class="cls-1" d="M951.16,465.68q24.66,18,49.31,36a2.53,2.53,0,0,0,3.06-.4c12.26-13.72,27.46-24.47,43.71-33,2.88-1.5.33-5.86-2.55-4.35-16.59,8.67-32.21,19.74-44.73,33.75l3.06-.39-49.31-36c-2.63-1.91-5.15,2.46-2.55,4.36Z"/><path class="cls-1" d="M935.63,506.05c21.64,15.91,42.43,35.58,57.71,57.76a2.56,2.56,0,0,0,4.35,0c13.19-18.08,27-38.12,46.3-50.17,2.75-1.71.22-6.08-2.55-4.36-20.12,12.54-34.37,33.15-48.1,52h4.35c-15.8-23-37.13-43.11-59.51-59.57-2.62-1.93-5.14,2.45-2.55,4.36Z"/><path class="cls-1" d="M1009.93,362.14c-2.4,33-6.54,65.78-8.31,98.79-1.24,23.11-.85,46.07-3.25,69.11-5.19,49.71-13.84,99-21.09,148.46-3.81,26-7.5,52-9.89,78.12-.29,3.24,4.76,3.22,5.05,0,4.53-49.55,13.06-98.71,20.43-147.9,3.53-23.59,7-47.2,9.69-70.91,1.1-9.63,2.07-19.28,2.68-29,.76-11.84.48-23.7.88-35.56,1.26-37.17,6.16-74.08,8.86-111.15.23-3.24-4.81-3.23-5.05,0Z"/><path class="cls-1" d="M930.49,563.88c19.32,23.7,32.21,52.1,53.83,74a2.54,2.54,0,0,0,3.56,0c22-24.55,49-44.08,69-70.48,2-2.59-2.42-5.11-4.36-2.55-19.73,26-46.54,45.25-68.23,69.46h3.56c-21.59-21.88-34.52-50.32-53.82-74-2-2.51-5.61,1.07-3.57,3.57Z"/><path class="cls-1" d="M897.8,625.27c10,14.56,24.85,23.92,36.3,37.05,9.35,10.71,18.49,22.39,30.18,30.69,3.92,2.79,8.58,5.35,13.55,4.75,5.45-.67,10.73-4,15.28-6.88,11.8-7.39,22.94-16.15,34.14-24.43,20.49-15.16,39.69-32,58.86-48.74,2.45-2.15-1.13-5.7-3.56-3.57-27,23.63-54.61,46.29-83.94,67-5.23,3.69-10.65,7.49-16.54,10.08-4.8,2.11-8.22,1.82-12.73-.9-11.5-6.92-20.45-18.62-29.12-28.63a142.51,142.51,0,0,0-15.29-15.4c-8.36-7.14-16.52-14.42-22.77-23.56-1.83-2.66-6.2-.14-4.36,2.55Z"/><path class="cls-2" d="M609.84,607.11c17.5-32.3,12.12-57.86-10.76-86.12-12.11-13.46-47.1-41.72-35-64.59,14.8-25.57,48.45,8.07,59.21,21.53-2.69-12.11-6.73-40.37,4-49.79,17.49-16.15,29.6,17.49,40.37,29.6,14.8-21.53,39-52.48,55.17-14.8,9.42,22.88,5.38,56.52,0,79.39-4,21.54-9.42,45.76-16.15,65.94C700,609.8,682.51,626,674.43,646.13"/><path class="cls-8" d="M679.32,630.9c25.56-41.72,26.91-76.71,37.67-123.8,5.39-26.92,9.42-70,39-79.4,35-12.11,31,32.3,36.33,53.83,9.42-10.76,36.33-43.06,55.17-35,17.49,9.42,4,45.75,2.69,60.56,18.84-5.39,52.48-16.15,57.86,13.45,4,24.22-25.56,61.9-41.71,76.7-31,32.3-82.08,61.9-125.14,75.36"/><path class="cls-2" d="M728.18,687c31-41.71,57.86-86.12,103.62-113,21.53-13.46,52.48-32.3,78-31,39,1.34,16.15,33.64,10.77,55.17,13.45,1.34,51.13-22.88,63.24-4s-44.4,48.44-51.13,64.59c17.49,0,75.35-20.18,56.52,21.53-12.12,31-53.83,36.33-80.74,39-48.45,4-96.89,9.41-145.33,13.45"/><path class="cls-9" d="M606.21,497.08c31.29,33,49.92,79.77,42.41,125.38-.52,3.18,4.34,4.55,4.87,1.34,7.81-47.48-11.07-95.9-43.71-130.29-2.24-2.36-5.8,1.22-3.57,3.57Z"/><path class="cls-9" d="M668.81,481.17c8.28,41.88,11.35,90.94-9.17,129.93-1.51,2.87,2.85,5.42,4.36,2.54,21.2-40.28,18.24-90.51,9.67-133.81-.62-3.19-5.49-1.84-4.86,1.34Z"/><path class="cls-9" d="M758.88,484.53c-.11,25.74-5.25,51.4-13.78,75.63s-20.62,47.59-38,66.57c-2.19,2.4,1.37,6,3.56,3.57,17.6-19.26,30-42.88,38.74-67.31,9-25.08,14.38-51.77,14.48-78.46,0-3.24-5-3.25-5,0Z"/><path class="cls-9" d="M818.43,504.79c-8.87,12.93-17.33,26.14-25.55,39.49-8.06,13.08-15.32,26.8-24.21,39.33-16,22.64-36.68,41.83-49.82,66.51-1.52,2.86,2.83,5.42,4.36,2.55C736.34,628,757,608.79,773,586.16c8.71-12.28,15.82-25.71,23.7-38.52,8.38-13.63,17-27.11,26.06-40.3,1.84-2.69-2.53-5.22-4.36-2.55Z"/><path class="cls-9" d="M887.45,576.94c-36.43,41.8-85.21,77.78-138.83,93.55-3.11.91-1.79,5.78,1.34,4.87,54.42-16,104.08-52.42,141.06-94.85,2.12-2.44-1.43-6-3.57-3.57Z"/><path class="cls-9" d="M923,619.61c-48.05,22-93.45,49.34-138.6,76.7-2.78,1.68-.24,6.05,2.54,4.36C832.05,673.3,877.44,646,925.5,624c2.94-1.35.38-5.71-2.55-4.36Z"/><path class="cls-9" d="M919.52,682.6c-43,16-88.46,24.2-131.88,39-3,1-1.74,5.92,1.34,4.87,43.43-14.82,88.83-23,131.88-39,3-1.13,1.71-6-1.34-4.87Z"/><path class="cls-1" d="M523.22,718.67c21.53-20.18,32.3-52.48,43.06-79.39,8.08-21.53,28.26-76.7,55.17-82.09,20.19-2.69,20.19,17.5,25.57,30.95,12.11,24.22,12.11,14.81,28.26,0C686,580.07,702.19,566.61,717,576c14.81,12.11,2.69,49.79,1.35,51.14,24.22,4,67.28-39,63.24,10.76-1.34,17.5-13.45,26.91,12.12,22.88,13.45-2.69,26.91-21.53,35,0,4,12.11-14.8,25.57-9.42,36.33,6.73,10.77,21.53-5.38,32.3,2.69,28.25,17.49-17.5,56.52-33.64,61.9C727.76,799.41,601.27,786,524.57,725.4c-1.35,0-1.35-1.35-2.69-2.69"/><path class="cls-4" d="M522.83,737.21c15.3-14.35,23-37.3,30.61-56.43,5.73-15.3,20.08-54.51,39.21-58.34,14.34-1.91,14.34,12.44,18.17,22,8.61,17.21,8.61,10.52,20.08,0,7.66-5.74,19.13-15.3,29.65-8.61,10.52,8.61,1.92,35.39,1,36.35,17.21,2.86,47.82-27.74,45,7.65-1,12.43-9.56,19.12,8.61,16.25,9.56-1.91,19.12-15.3,24.86,0,2.87,8.61-10.52,18.18-6.69,25.83,4.78,7.65,15.3-3.83,23,1.91,20.09,12.43-12.43,40.17-23.91,44C668.2,794.59,578.3,785,523.79,742c-1,0-1-1-1.91-1.91"/><path class="cls-5" d="M251.41,775.2c-65.94,0-129.18,8.07-169.55-56.52C33.41,639.28,59,389,60.33,358.05c31,12.11,131.87,91.5,161.47,114.38,48.45,39,74,98.23,82.09,160.13,6.73,44.4-6.73,122.45-51.14,144"/><path class="cls-10" d="M62.31,362.37c20.93,40.47,45.14,79.48,61.7,122.06,14.63,37.65,23.93,77.25,38.3,115.08,23.45,61.71,53.05,123,94.36,174.93,41.28-24.1,53.74-98.81,47.22-141.88-8.08-61.9-33.64-121.11-82.09-160.13C192.2,449.55,91.28,370.16,60.33,358.05c0,.46,0,1-.08,1.53A10.48,10.48,0,0,1,62.31,362.37Z"/><path class="cls-1" d="M313.31,764.43c-56.52,2.69-96.89-48.44-95.54-100.92,1.34-55.17,40.37-114.38,10.76-166.86-32.29-53.83-118.41-96.89-72.66-170.9,8.07-12.11,21.53-32.29,39-29.6,16.15,2.69,29.6,22.87,25.57,37.68-6.73,30.94-49.79,45.75-24.22,80.73,18.83,25.57,56.51,37.68,79.39,60.56,22.87,24.22,29.6,56.51,30.95,88.81s-1.35,52.48,21.53,79.39c20.18,25.57,52.48,41.72,80.74,57.86,12.11,6.73,25.56,12.12,37.67,17.5"/><path class="cls-5" d="M151.9,326.58c6.39,3.88,12.46,8.24,18.84,12.12,2.78,1.69,5.32-2.68,2.55-4.36-6.39-3.88-12.46-8.24-18.84-12.11-2.78-1.69-5.32,2.67-2.55,4.35Z"/><path class="cls-5" d="M182,323c2.52,3.71,5.55,7.05,8.07,10.76,1.82,2.67,6.19.15,4.36-2.54-2.53-3.72-5.55-7-8.08-10.77-1.81-2.67-6.18-.15-4.35,2.55Z"/><path class="cls-5" d="M160.58,378a73.52,73.52,0,0,0,16.82,1.44c3.24,0,3.25-5.05,0-5.05-5.22,0-10.37-.07-15.48-1.25-3.16-.73-4.51,4.13-1.34,4.86Z"/><path class="cls-5" d="M177,417.69a41.12,41.12,0,0,0,9.93,7.13c2.88,1.47,5.44-2.88,2.55-4.36a36.53,36.53,0,0,1-8.91-6.33c-2.33-2.27-5.9,1.29-3.57,3.56Z"/><path class="cls-5" d="M200.79,445.44a46.42,46.42,0,0,0,15.7,13c2.89,1.48,5.44-2.88,2.55-4.36a40.88,40.88,0,0,1-13.9-11.2c-1.95-2.54-6.34,0-4.35,2.54Z"/><path class="cls-5" d="M191.53,367.21a43.68,43.68,0,0,1,10.16,5.13c2.72,1.79,5.25-2.58,2.55-4.36a49.41,49.41,0,0,0-11.37-5.64c-3.08-1-4.4,3.83-1.34,4.87Z"/><path class="cls-5" d="M237.28,476.2a23,23,0,0,0,9.18-6c2.3-2.29-1.26-5.86-3.56-3.56a17.62,17.62,0,0,1-7,4.73c-3.05,1.05-1.74,5.92,1.35,4.86Z"/><path class="cls-5" d="M220.46,505.9h14.8c3.25,0,3.25-5,0-5h-14.8c-3.25,0-3.25,5,0,5Z"/><path class="cls-5" d="M250.23,506.07c0,4.73,0,9.56,1.44,14.12,1,3.1,5.82,1.78,4.86-1.34-1.27-4.14-1.25-8.49-1.25-12.78,0-3.25-5.05-3.26-5.05,0Z"/><path class="cls-5" d="M237.28,556.94c4.45,1.49,8.91,2.89,13.46,4,3.15.8,4.49-4.07,1.34-4.87-4.55-1.15-9-2.55-13.46-4-3.09-1-4.41,3.84-1.34,4.86Z"/><path class="cls-5" d="M262.34,582.77a42.34,42.34,0,0,0,1.44,12.78c1,3.09,5.83,1.77,4.86-1.34a38,38,0,0,1-1.25-11.44c0-3.25-5.05-3.25-5.05,0Z"/><path class="cls-5" d="M223.82,614.81c5.81,1.17,11.54,2.53,16.89,5.12,2.91,1.42,5.48-2.93,2.55-4.35a74.8,74.8,0,0,0-18.09-5.64c-3.17-.64-4.53,4.22-1.35,4.87Z"/><path class="cls-5" d="M265.12,623.81c1.74,5.3,3.45,10.43,7.38,14.57,2.24,2.36,5.8-1.21,3.57-3.57-3.3-3.47-4.62-7.9-6.08-12.34-1-3.07-5.89-1.76-4.87,1.34Z"/><path class="cls-5" d="M263,703.8c2.89-4.41,5.32-9.11,9-12.94,2.26-2.34-1.31-5.91-3.57-3.57-4,4.14-6.68,9.19-9.81,14-1.79,2.72,2.58,5.25,4.36,2.54Z"/><path class="cls-5" d="M277.49,664.78a149.86,149.86,0,0,0,13.85,15.31c2.3,2.3,5.87-1.26,3.57-3.56a142.68,142.68,0,0,1-13.07-14.3c-1.93-2.55-6.32,0-4.35,2.55Z"/><path class="cls-5" d="M318,687.47a46.78,46.78,0,0,0,14.13,2.78c3.24,0,3.24-5,0-5a41.56,41.56,0,0,1-12.79-2.6c-3.09-1-4.41,3.85-1.34,4.87Z"/><path class="cls-2" d="M18.61,710.6c0-32.3,0-64.6,4-95.54,2.69-21.54,8.08-96.89,36.33-105,31-8.08,33.64,56.51,31,74A387.67,387.67,0,0,1,63,671.57c-8.07,20.19-22.88,29.6-44.41,39"/><path class="cls-2" d="M54.67,717C74.32,691.37,94,665.75,116,643.64c15.24-15.45,65.36-72,92.7-61.19,29.47,12.42-7.69,65.32-20.47,77.56a387.88,387.88,0,0,1-74.57,53c-18.69,11.11-36.17,9.58-59,4"/><path class="cls-8" d="M32.47,718.24c9.5-30.87,19-61.74,32-90.13,8.9-19.78,36.21-90.22,65.6-89.63,32,1.39,15.52,63.92,7.81,79.84A387.9,387.9,0,0,1,86.39,694c-13.65,16.92-30.57,21.57-53.92,24.24"/><path class="cls-8" d="M63.76,729.83c27-17.79,53.92-35.58,82-49.25C165.18,671,231,634,253.35,653.1c23.78,21.38-28.65,59.2-44.73,66.59a387.12,387.12,0,0,1-87.83,25.71c-21.29,4.38-37.31-2.79-57-15.57"/><path class="cls-9" d="M35.85,709.92c13.48-55.67,18.87-113,18.93-170.22,0-3.25-5-3.25-5.05,0C49.67,596.47,44.36,653.33,31,708.58c-.76,3.15,4.1,4.5,4.87,1.34Z"/><path class="cls-9" d="M58.08,728.53c44.76-43.31,94.48-81.15,138.6-125.15,2.3-2.29-1.27-5.86-3.57-3.57C149,643.81,99.27,681.66,54.51,725c-2.34,2.26,1.23,5.83,3.57,3.57Z"/><path class="cls-9" d="M43.67,728c25.75-52.66,59.32-101.69,77-158,1-3.1-3.89-4.43-4.86-1.34-17.5,55.92-50.89,104.59-76.45,156.84-1.42,2.91,2.93,5.47,4.36,2.55Z"/><path class="cls-1" d="M1.12,757.68c0-22.87-2.69-47.09,1.35-68.62,2.69-9.42,9.42-40.37,22.87-37.68,12.12,2.69,12.12,35,13.46,43.06,4-10.77,22.88-40.37,39-32.3,14.81,8.08-15,35.91-16.38,46.68,43.3-27.84,61.2-22.45,27.15,23.3,34.05-12.11,48,2.5,24.22,22.87C94,771.14,34.44,768.45,1.12,757.68"/><path class="cls-4" d="M.78,761.15c0-13.81-1.63-28.43.81-41.43C3.21,714,7.27,695.35,15.4,697c7.31,1.62,7.31,21.12,8.12,26,2.44-6.5,13.81-24.37,23.56-19.49,8.93,4.87-9.08,21.67-9.89,28.17,26.13-16.8,36.94-13.55,16.39,14.07,20.55-7.32,29,1.51,14.62,13.81-11.37,9.74-47.31,8.12-67.42,1.62"/><path class="cls-9" d="M72.37,746.42c12-8.41,25.18-14.47,39.05-19,13.54-4.45,27.52-7.3,40.92-12.23,25.54-9.4,48.75-23.58,72.08-37.38,2.8-1.65.26-6-2.54-4.36-23.94,14.16-47.77,28.82-74.16,38-13.17,4.61-26.88,7.37-40.09,11.88a149.13,149.13,0,0,0-37.81,18.71c-2.64,1.85-.12,6.23,2.55,4.36Z"/><path class="cls-1" d="M376.81,749.48c8.07-22.87,12.11-49.79,14.8-74,4-36.33-10.76-70-9.42-106.3,1.35-33.64,10.77-80.74,45.75-94.2,29.61-10.76,64.59,1.35,74-39,5.38-21.53-25.57-60.55,4-68.63,33.64-9.42,49.79,47.1,51.13,70,5.39,76.71-79.39,64.59-119.76,102.27-28.26,26.92-14.8,70-5.38,102.27,9.42,33.64,13.46,64.59,0,98.23"/><path class="cls-5" d="M393.63,626.77a65.87,65.87,0,0,0,15.47,1.44c3.25,0,3.26-5.05,0-5.05A60.39,60.39,0,0,1,395,621.91c-3.16-.75-4.5,4.11-1.34,4.86Z"/><path class="cls-5" d="M400.36,597.17a42.65,42.65,0,0,0,12.78,1.43c3.25,0,3.25-5,0-5a38,38,0,0,1-11.44-1.26c-3.11-1-4.44,3.91-1.34,4.87Z"/><path class="cls-5" d="M378.83,555.45c5.54,1.38,11.08,2.68,16.82,2.78,3.24.06,3.25-5,0-5-5.29-.1-10.37-1.33-15.48-2.6-3.15-.79-4.5,4.08-1.34,4.86Z"/><path class="cls-5" d="M417.25,555.2c3.53,2.33,7.23,4.39,10.76,6.73,2.72,1.79,5.25-2.58,2.55-4.36-3.53-2.33-7.23-4.4-10.76-6.73-2.72-1.79-5.25,2.58-2.55,4.36Z"/><path class="cls-5" d="M412.7,511.74a85.06,85.06,0,0,0,12.62,9.82c2.71,1.8,5.24-2.56,2.55-4.36a77.44,77.44,0,0,1-11.6-9c-2.32-2.27-5.89,1.29-3.57,3.57Z"/><path class="cls-5" d="M416.34,473.56c3.19,4.65,7.19,8.64,11.16,12.62,2.3,2.3,5.87-1.27,3.57-3.57-3.66-3.66-7.43-7.31-10.37-11.6-1.82-2.66-6.2-.14-4.36,2.55Z"/><path class="cls-5" d="M446,501.81c1.79,3.41,4.57,6.25,6.73,9.42,1.81,2.68,6.18.15,4.35-2.54-2.15-3.18-4.94-6-6.73-9.42-1.5-2.88-5.86-.33-4.35,2.54Z"/><path class="cls-5" d="M467.87,491.56,480,503.67c2.3,2.3,5.87-1.27,3.57-3.57L471.44,488c-2.3-2.3-5.87,1.27-3.57,3.57Z"/><path class="cls-5" d="M469.22,462,480,472.72c2.3,2.3,5.87-1.27,3.57-3.57q-5.39-5.38-10.76-10.76c-2.3-2.3-5.87,1.27-3.57,3.57Z"/><path class="cls-5" d="M500.17,478.1c5.16,5.16,10.4,10,16.66,13.85,2.77,1.7,5.31-2.66,2.54-4.35-5.89-3.61-10.77-8.21-15.63-13.07-2.3-2.29-5.87,1.27-3.57,3.57Z"/><path class="cls-5" d="M540.3,469.33c6.18,1.24,12.51,2.4,18.24,5.13,2.92,1.39,5.48-3,2.55-4.36-6.17-2.93-12.79-4.3-19.44-5.63-3.18-.64-4.53,4.22-1.35,4.86Z"/><path class="cls-5" d="M522.81,441.07c6,1.4,12.06,1.44,18.17,1.44,3.24,0,3.25-5.05,0-5.05-5.65,0-11.3,0-16.83-1.25-3.16-.74-4.51,4.12-1.34,4.86Z"/><path class="cls-5" d="M496.5,416.6a38.86,38.86,0,0,1,16.22-3.69c3.24-.05,3.25-5.1,0-5.05A45,45,0,0,0,494,412.24c-2.93,1.4-.37,5.75,2.55,4.36Z"/><path class="cls-5" d="M532.23,396.67l20.18-4c3.18-.64,1.84-5.5-1.34-4.87l-20.19,4c-3.18.64-1.83,5.5,1.35,4.87Z"/><path class="cls-5" d="M504.57,389.69a70.76,70.76,0,0,1,8.82-3.79c3.06-1,1.74-5.91-1.34-4.86a79.8,79.8,0,0,0-10,4.29c-2.9,1.45-.35,5.8,2.55,4.36Z"/><path class="cls-8" d="M720.14,717.3c-62.4-4.35-135,49.34-195.91,13.06-17.41-10.16-23.22-24.67-8.71-42.08,14.52-18.87,42.09-17.41,63.86-17.41,39.18,0,76.91,5.8,113.19,18.86,13.06,4.35,24.67,10.16,36.28,14.51"/><path class="cls-8" d="M712.75,707.27c-45.39-43-135.54-47.74-159.51-114.5-7-18.91-2.23-33.8,20-38,23.2-5.33,43.56,13.32,60.36,27.16,30.24,24.91,55.67,53.39,75.37,86.54,7.31,11.66,12.57,23.53,18.77,34.27"/><path class="cls-8" d="M745.3,717.3c62.4-4.35,135,49.34,195.91,13.06,17.41-10.16,23.22-24.67,8.7-42.08-14.51-18.87-42.08-17.41-63.85-17.41-39.18,0-76.91,5.8-113.19,18.86-13.06,4.35-24.67,10.16-36.28,14.51"/><path class="cls-8" d="M757.76,709.65c45.4-43,135.54-47.74,159.51-114.5,7-18.91,2.23-33.8-20-38-23.2-5.34-43.56,13.32-60.35,27.16-30.25,24.91-55.68,53.39-75.37,86.54-7.31,11.66-12.58,23.53-18.77,34.27"/><path class="cls-8" d="M706.75,688.45C701.34,626.13,637,562.81,663.36,497c7.32-18.79,20.76-26.78,40.21-15.15,20.9,11.4,23.76,38.86,27.14,60.36,6.1,38.71,6.24,76.88-1,114.75-2.27,13.58-6.2,26-8.7,38.1"/><path class="cls-8" d="M718,694.45c29.08-55.38,9.11-143.41,66.84-184.62,16.31-11.86,31.92-11.34,42,8.95,11.44,20.88-1,45.54-9.74,65.47-15.76,35.87-36.25,68.08-62.8,96-9.24,10.2-19.22,18.49-27.88,27.37"/><path class="cls-9" d="M586.06,598.64c43.75,36.85,101.07,54.89,137.25,100.93,2,2.55,5.55-1,3.57-3.57-17.77-22.61-40.9-39.35-65.32-54.11s-49.93-28.28-71.94-46.81c-2.47-2.08-6,1.47-3.56,3.56Z"/><path class="cls-9" d="M691.71,524.87c13.74,58.78,2.48,122.63,29.86,178.22,1.44,2.92,5.79.36,4.36-2.54-27.09-55-15.74-118.8-29.35-177-.74-3.17-5.61-1.83-4.87,1.34Z"/><path class="cls-9" d="M785.91,539.67c-15.8,51.87-17.32,110.63-51.83,155-2,2.53,1.57,6.12,3.56,3.56C772.88,653,774.64,594,790.77,541c1-3.11-3.92-4.44-4.86-1.34Z"/><path class="cls-9" d="M884.79,592.39c-23.95,18.51-42.36,43.4-67.32,60.65-25.67,17.75-52.1,34.42-76.67,53.73-2.55,2,1.05,5.55,3.57,3.56,25.21-19.81,52.51-36.63,78.71-55.05,24.1-16.95,42-41.32,65.28-59.33,2.56-2-1-5.53-3.57-3.56Z"/><path class="cls-9" d="M536.71,700.31c28.12,2.76,56.28-2.69,84.41-2.69,31.56,0,63.11,1.44,94.56,4,3.23.27,3.21-4.78,0-5-31.45-2.6-63-4.05-94.56-4-28.13,0-56.29,5.46-84.41,2.69-3.23-.32-3.21,4.73,0,5Z"/><path class="cls-9" d="M923.69,694.59c-31.29-5.1-63-1.36-94.38,1s-64,3.87-93.94-7.53c-3-1.16-4.35,3.72-1.34,4.86,60.53,23.05,126.14-3.58,188.32,6.55,3.17.52,4.54-4.34,1.34-4.86Z"/><path class="cls-2" d="M737.56,666.51c-43.54-5.8-84.17,46.44-33.38,72.56,52.24,27.57,110.29-49.34,33.38-72.56"/><path class="cls-11" d="M733.27,683.43c-24.66-3.29-47.67,26.29-18.9,41.09,29.58,15.61,62.45-27.95,18.9-41.09"/><path class="cls-1" d="M1867.59,559.13c29.6-70,22.87-152.06-51.13-187-43.07-20.18-65.94-52.48-51.14-100.92,6.73-20.18,48.44-99.58,79.39-60.55,17.5,24.22-29.6,53.82-29.6,78,0,31,41.71,45.75,63.24,59.21,64.59,37.68,70,111.69,59.21,179"/><path class="cls-5" d="M1810.63,229.89a77.58,77.58,0,0,0,11.28,8.46c2.71,1.81,5.24-2.56,2.55-4.35a71.25,71.25,0,0,1-10.26-7.68c-2.33-2.27-5.9,1.3-3.57,3.57Z"/><path class="cls-5" d="M1793.14,256.8c3.32,3.13,7.62,4.61,11.88,6,3.09,1,4.41-3.84,1.34-4.87-3.4-1.13-7-2.22-9.65-4.73-2.36-2.23-5.94,1.33-3.57,3.57Z"/><path class="cls-5" d="M1761.36,261.23A150.18,150.18,0,0,1,1777,274.29c2.32,2.28,5.89-1.28,3.57-3.57a161.18,161.18,0,0,0-16.66-13.85c-2.6-2-5.11,2.43-2.54,4.36Z"/><path class="cls-5" d="M1785.5,300.6a25.5,25.5,0,0,0,13.39-4.39c2.72-1.75.19-6.12-2.55-4.35a20.44,20.44,0,0,1-10.84,3.69c-3.24.07-3.25,5.11,0,5.05Z"/><path class="cls-5" d="M1820,323.57c2.77-4,6.93-6.87,10.37-10.26,2.32-2.28-1.25-5.85-3.57-3.56-3.78,3.72-8.1,6.87-11.16,11.27-1.86,2.67,2.52,5.2,4.36,2.55Z"/><path class="cls-5" d="M1776.92,350.48a64.87,64.87,0,0,1,12.55-12.55c2.56-1.94,0-6.32-2.55-4.36a74,74,0,0,0-14.36,14.36c-2,2.59,2.42,5.11,4.36,2.55Z"/><path class="cls-5" d="M1826.71,355.86a71.42,71.42,0,0,1,9-10.25c2.3-2.3-1.27-5.87-3.57-3.57a78.58,78.58,0,0,0-9.81,11.28c-1.83,2.69,2.54,5.22,4.36,2.54Z"/><path class="cls-5" d="M1861.3,355c4-4.15,6.76-9.31,10.76-13.46,2.26-2.33-1.3-5.91-3.56-3.57-4,4.15-6.76,9.31-10.77,13.46-2.26,2.34,1.31,5.91,3.57,3.57Z"/><path class="cls-5" d="M1842.69,393.35c5.52-1.39,10.42-3.37,14.57-7.37,2.34-2.26-1.23-5.83-3.57-3.57-3.52,3.4-7.68,4.9-12.34,6.08-3.15.8-1.81,5.66,1.34,4.86Z"/><path class="cls-5" d="M1876.33,390.66a63.79,63.79,0,0,0,14.06-7c2.71-1.77.19-6.14-2.54-4.36A58.77,58.77,0,0,1,1875,385.8c-3,1.05-1.74,5.93,1.34,4.86Z"/><path class="cls-5" d="M1891.74,422.7a85,85,0,0,0,12.62-9.81c2.32-2.28-1.25-5.85-3.57-3.57a77.44,77.44,0,0,1-11.6,9c-2.69,1.79-.16,6.16,2.55,4.35Z"/><path class="cls-5" d="M1917.31,403.87c5-2.55,9.78-5.53,14.8-8.08,2.89-1.47.34-5.82-2.55-4.35-5,2.54-9.79,5.52-14.8,8.07-2.9,1.47-.35,5.83,2.55,4.36Z"/><path class="cls-5" d="M1901.16,444.24a40.52,40.52,0,0,0,14.36-11.68c2-2.57-2.41-5.09-4.36-2.54a35,35,0,0,1-12.55,9.86c-2.9,1.47-.35,5.82,2.55,4.36Z"/><path class="cls-8" d="M1934.88,720.62c-47.1,6.73-94.19,24.22-142.64,24.22-20.18,0-70-4-76.7-28.26-6.73-29.6,40.37-51.13,59.21-61.9-22.88-5.38-57.86-26.91-57.86-53.82,0-32.3,40.36-25.57,61.9-26.92-10.77-22.87-45.76-45.75-36.34-78,14.8-44.41,51.14,2.69,67.28,14.8,4-20.19-5.38-80.74,29.61-86.12,24.22-2.69,41.71,59.2,47.1,78,6.72-21.53,37.67-94.19,60.55-49.78,12.11,26.91-1.35,59.2-2.69,86.12,16.15-9.42,47.1-28.26,55.17,0,5.38,17.49-10.77,53.82-17.49,70-13.46,37.68-35,78.05-48.45,110.34"/><path class="cls-2" d="M1930.64,719.12c-31.88,4.55-63.75,16.39-96.54,16.39-13.66,0-47.36-2.73-51.91-19.12-4.56-20,27.32-34.61,40.07-41.9-15.48-3.64-39.17-18.21-39.17-36.43,0-21.86,27.33-17.3,41.9-18.21-7.29-15.49-31-31-24.59-52.83,10-30.06,34.61,1.82,45.54,10,2.73-13.66-3.64-54.65,20-58.29,16.4-1.82,28.24,40.07,31.88,52.83,4.56-14.58,25.5-63.76,41-33.7,8.2,18.21-.9,40.07-1.82,58.29,10.93-6.38,31.88-19.13,37.34,0,3.65,11.83-7.28,36.42-11.83,47.35-9.11,25.51-23.69,52.83-32.79,74.69"/><path class="cls-8" d="M1935.58,720.34c-20.34,2.91-40.67,10.46-61.59,10.46-8.71,0-30.21-1.74-33.12-12.2-2.9-12.79,17.44-22.08,25.57-26.73-9.88-2.33-25-11.62-25-23.24,0-14,17.44-11,26.73-11.62-4.65-9.88-19.75-19.76-15.69-33.7,6.4-19.18,22.08,1.16,29.06,6.39,1.74-8.72-2.33-34.86,12.78-37.19,10.46-1.16,18,25.57,20.33,33.7,2.91-9.29,16.27-40.67,26.15-21.49,5.23,11.62-.58,25.56-1.16,37.18,7-4.07,20.33-12.2,23.82,0,2.32,7.56-4.65,23.24-7.55,30.22-5.81,16.26-15.11,33.69-20.92,47.64"/></g></g></svg>