<svg xmlns="http://www.w3.org/2000/svg" xmlns:xlink="http://www.w3.org/1999/xlink" viewBox="0 0 357.07 231.23"><defs><style>.cls-1{fill:none;}.cls-2{font-size:148.83px;font-family:BukhariScript, Bukhari Script;}.cls-3{font-size:25.07px;font-family:Raleway-Regular, Raleway;}.cls-4,.cls-5,.cls-6,.cls-7,.cls-8{font-size:20.89px;font-family:Raleway-SemiBold, Raleway;font-weight:600;}.cls-4{letter-spacing:0.05em;}.cls-5{letter-spacing:0.01em;}.cls-6{letter-spacing:0.02em;}.cls-7{letter-spacing:0.05em;}.cls-8{letter-spacing:-0.02em;}.cls-9{clip-path:url(#clip-path);}.cls-10{fill:#ffd072;}</style><clipPath id="clip-path"><rect class="cls-1" x="308.97" y="14.43" width="48.1" height="46.31"/></clipPath></defs><title>logo</title><g id="Calque_2" data-name="Calque 2"><g id="Calque_1-2" data-name="Calque 1"><text class="cls-2" transform="translate(6.48 138.87)">Bees<tspan class="cls-3"><tspan x="18.75" y="33.43" xml:space="preserve">   </tspan><tspan class="cls-4" x="37.93" y="33.43">F</tspan><tspan class="cls-5" x="51.07" y="33.43">L</tspan><tspan class="cls-6" x="63.38" y="33.43">O</tspan><tspan class="cls-7" x="79.59" y="33.43">WER POLLIN</tspan><tspan class="cls-8" x="218.41" y="33.43">A</tspan><tspan class="cls-4" x="232.1" y="33.43">TION</tspan></tspan></text><g class="cls-9"><path class="cls-10" d="M322.47,32.83a22.93,22.93,0,0,0,4.45-.45c.75-.15,2.34-.56,3.92-1.06,3.06-1,3.55-1.44,3.78-1.68a1.4,1.4,0,0,0,.25-1.65c-.18-.35-.34-.66-.49-1A22.1,22.1,0,0,0,333.25,25a17.86,17.86,0,0,0-2.82-3.52,17.86,17.86,0,0,0-5.12-3.74A17.53,17.53,0,0,0,318,16c-3.84,0-6.86,1.45-8.29,4s-.82,5.22,1.63,8.35c1.48,1.9,4.5,3.38,6.68,3.95a17.58,17.58,0,0,0,4.46.54Z"/><path class="cls-10" d="M340,28.37l.23,0a13,13,0,0,0,3.55-1.88,11.56,11.56,0,0,0,2.63-2.64,7.24,7.24,0,0,0,.93-7.18,3.71,3.71,0,0,0-3.36-2.13,5.67,5.67,0,0,0-3.06,1,8,8,0,0,0-3.31,6.09,9.92,9.92,0,0,0,1.21,6.08,1.41,1.41,0,0,0,1.18.64Z"/><path class="cls-10" d="M356,40.71a14.44,14.44,0,0,0-12.88-8.92c-1.43,3.67-1.22,8.71.61,13.48,2,5.2,5.68,9.34,9.48,10.83A14.47,14.47,0,0,0,356,40.71Z"/></g><path d="M341.07,46.28A22.69,22.69,0,0,1,340,32a14.13,14.13,0,0,0-3,.87,22.85,22.85,0,0,0-7.35,5.64,29.83,29.83,0,0,0,2.07,11.15,29.06,29.06,0,0,0,7.22,11c.63,0,1.24,0,1.82,0a19.91,19.91,0,0,0,7.3-1.07,14.61,14.61,0,0,0,2.7-1.47c-4-2.1-7.69-6.43-9.77-11.85Z"/><path class="cls-10" d="M327,41.75l-.69.94C323,47.41,321,52.06,321,55.14c0,1.35,1.4,2.11,2.62,2.62a30.39,30.39,0,0,0,4.7,1.42,59.1,59.1,0,0,0,6.52,1.11,33.24,33.24,0,0,1-5.63-9.6A33.8,33.8,0,0,1,327,41.75Z"/></g></g></svg>